<svg width="1440" height="864" viewBox="0 0 1440 864" fill="none" xmlns="http://www.w3.org/2000/svg">
<g clip-path="url(#clip0_322_7617)">
<rect width="1440" height="864" fill="white"/>
<rect x="104" width="1440" height="1024" fill="white"/>
<mask id="mask0_322_7617" style="mask-type:alpha" maskUnits="userSpaceOnUse" x="104" y="-179" width="1440" height="1440">
<rect width="1440" height="1440" transform="translate(104 -179)" fill="url(#paint0_radial_322_7617)"/>
</mask>
<g mask="url(#mask0_322_7617)">
<g opacity="0.7">
<g clip-path="url(#clip1_322_7617)">
<mask id="path-4-inside-1_322_7617" fill="white">
<path d="M56 -83H152V13H56V-83Z"/>
</mask>
<path d="M152 13V14H153V13H152ZM152 -83H151V13H152H153V-83H152ZM152 13V12H56V13V14H152V13Z" fill="#F76319" fill-opacity="0.5" mask="url(#path-4-inside-1_322_7617)"/>
<mask id="path-6-inside-2_322_7617" fill="white">
<path d="M152 -83H248V13H152V-83Z"/>
</mask>
<path d="M248 13V14H249V13H248ZM248 -83H247V13H248H249V-83H248ZM248 13V12H152V13V14H248V13Z" fill="#F76319" fill-opacity="0.5" mask="url(#path-6-inside-2_322_7617)"/>
<mask id="path-8-inside-3_322_7617" fill="white">
<path d="M248 -83H344V13H248V-83Z"/>
</mask>
<path d="M344 13V14H345V13H344ZM344 -83H343V13H344H345V-83H344ZM344 13V12H248V13V14H344V13Z" fill="#F76319" fill-opacity="0.5" mask="url(#path-8-inside-3_322_7617)"/>
<mask id="path-10-inside-4_322_7617" fill="white">
<path d="M344 -83H440V13H344V-83Z"/>
</mask>
<path d="M344 -83H440V13H344V-83Z" fill="#F2F4F7"/>
<path d="M440 13V14H441V13H440ZM440 -83H439V13H440H441V-83H440ZM440 13V12H344V13V14H440V13Z" fill="#F76319" fill-opacity="0.5" mask="url(#path-10-inside-4_322_7617)"/>
<mask id="path-12-inside-5_322_7617" fill="white">
<path d="M440 -83H536V13H440V-83Z"/>
</mask>
<path d="M536 13V14H537V13H536ZM536 -83H535V13H536H537V-83H536ZM536 13V12H440V13V14H536V13Z" fill="#F76319" fill-opacity="0.5" mask="url(#path-12-inside-5_322_7617)"/>
<mask id="path-14-inside-6_322_7617" fill="white">
<path d="M536 -83H632V13H536V-83Z"/>
</mask>
<path d="M632 13V14H633V13H632ZM632 -83H631V13H632H633V-83H632ZM632 13V12H536V13V14H632V13Z" fill="#F76319" fill-opacity="0.5" mask="url(#path-14-inside-6_322_7617)"/>
<mask id="path-16-inside-7_322_7617" fill="white">
<path d="M632 -83H728V13H632V-83Z"/>
</mask>
<path d="M728 13V14H729V13H728ZM728 -83H727V13H728H729V-83H728ZM728 13V12H632V13V14H728V13Z" fill="#F76319" fill-opacity="0.5" mask="url(#path-16-inside-7_322_7617)"/>
<mask id="path-18-inside-8_322_7617" fill="white">
<path d="M728 -83H824V13H728V-83Z"/>
</mask>
<path d="M824 13V14H825V13H824ZM824 -83H823V13H824H825V-83H824ZM824 13V12H728V13V14H824V13Z" fill="#F76319" fill-opacity="0.5" mask="url(#path-18-inside-8_322_7617)"/>
<mask id="path-20-inside-9_322_7617" fill="white">
<path d="M824 -83H920V13H824V-83Z"/>
</mask>
<path d="M920 13V14H921V13H920ZM920 -83H919V13H920H921V-83H920ZM920 13V12H824V13V14H920V13Z" fill="#F76319" fill-opacity="0.5" mask="url(#path-20-inside-9_322_7617)"/>
<mask id="path-22-inside-10_322_7617" fill="white">
<path d="M920 -83H1016V13H920V-83Z"/>
</mask>
<path d="M1016 13V14H1017V13H1016ZM1016 -83H1015V13H1016H1017V-83H1016ZM1016 13V12H920V13V14H1016V13Z" fill="#F76319" fill-opacity="0.5" mask="url(#path-22-inside-10_322_7617)"/>
<mask id="path-24-inside-11_322_7617" fill="white">
<path d="M1016 -83H1112V13H1016V-83Z"/>
</mask>
<path d="M1112 13V14H1113V13H1112ZM1112 -83H1111V13H1112H1113V-83H1112ZM1112 13V12H1016V13V14H1112V13Z" fill="#F76319" fill-opacity="0.5" mask="url(#path-24-inside-11_322_7617)"/>
<mask id="path-26-inside-12_322_7617" fill="white">
<path d="M1112 -83H1208V13H1112V-83Z"/>
</mask>
<path d="M1208 13V14H1209V13H1208ZM1208 -83H1207V13H1208H1209V-83H1208ZM1208 13V12H1112V13V14H1208V13Z" fill="#F76319" fill-opacity="0.5" mask="url(#path-26-inside-12_322_7617)"/>
<mask id="path-28-inside-13_322_7617" fill="white">
<path d="M1208 -83H1304V13H1208V-83Z"/>
</mask>
<path d="M1208 -83H1304V13H1208V-83Z" fill="#F2F4F7"/>
<path d="M1304 13V14H1305V13H1304ZM1304 -83H1303V13H1304H1305V-83H1304ZM1304 13V12H1208V13V14H1304V13Z" fill="#F76319" fill-opacity="0.5" mask="url(#path-28-inside-13_322_7617)"/>
<mask id="path-30-inside-14_322_7617" fill="white">
<path d="M1304 -83H1400V13H1304V-83Z"/>
</mask>
<path d="M1400 13V14H1401V13H1400ZM1400 -83H1399V13H1400H1401V-83H1400ZM1400 13V12H1304V13V14H1400V13Z" fill="#F76319" fill-opacity="0.5" mask="url(#path-30-inside-14_322_7617)"/>
<mask id="path-32-inside-15_322_7617" fill="white">
<path d="M1400 -83H1496V13H1400V-83Z"/>
</mask>
<path d="M1496 13V14H1497V13H1496ZM1496 -83H1495V13H1496H1497V-83H1496ZM1496 13V12H1400V13V14H1496V13Z" fill="#F76319" fill-opacity="0.5" mask="url(#path-32-inside-15_322_7617)"/>
<mask id="path-34-inside-16_322_7617" fill="white">
<path d="M56 13H152V109H56V13Z"/>
</mask>
<path d="M152 109V110H153V109H152ZM152 13H151V109H152H153V13H152ZM152 109V108H56V109V110H152V109Z" fill="#F76319" fill-opacity="0.5" mask="url(#path-34-inside-16_322_7617)"/>
<mask id="path-36-inside-17_322_7617" fill="white">
<path d="M152 13H248V109H152V13Z"/>
</mask>
<path d="M248 109V110H249V109H248ZM248 13H247V109H248H249V13H248ZM248 109V108H152V109V110H248V109Z" fill="#F76319" fill-opacity="0.5" mask="url(#path-36-inside-17_322_7617)"/>
<mask id="path-38-inside-18_322_7617" fill="white">
<path d="M248 13H344V109H248V13Z"/>
</mask>
<path d="M344 109V110H345V109H344ZM344 13H343V109H344H345V13H344ZM344 109V108H248V109V110H344V109Z" fill="#F76319" fill-opacity="0.5" mask="url(#path-38-inside-18_322_7617)"/>
<mask id="path-40-inside-19_322_7617" fill="white">
<path d="M344 13H440V109H344V13Z"/>
</mask>
<path d="M440 109V110H441V109H440ZM440 13H439V109H440H441V13H440ZM440 109V108H344V109V110H440V109Z" fill="#F76319" fill-opacity="0.5" mask="url(#path-40-inside-19_322_7617)"/>
<mask id="path-42-inside-20_322_7617" fill="white">
<path d="M440 13H536V109H440V13Z"/>
</mask>
<path d="M536 109V110H537V109H536ZM536 13H535V109H536H537V13H536ZM536 109V108H440V109V110H536V109Z" fill="#F76319" fill-opacity="0.5" mask="url(#path-42-inside-20_322_7617)"/>
<mask id="path-44-inside-21_322_7617" fill="white">
<path d="M536 13H632V109H536V13Z"/>
</mask>
<path d="M536 13H632V109H536V13Z" fill="#F2F4F7"/>
<path d="M632 109V110H633V109H632ZM632 13H631V109H632H633V13H632ZM632 109V108H536V109V110H632V109Z" fill="#F76319" fill-opacity="0.5" mask="url(#path-44-inside-21_322_7617)"/>
<mask id="path-46-inside-22_322_7617" fill="white">
<path d="M632 13H728V109H632V13Z"/>
</mask>
<path d="M728 109V110H729V109H728ZM728 13H727V109H728H729V13H728ZM728 109V108H632V109V110H728V109Z" fill="#F76319" fill-opacity="0.5" mask="url(#path-46-inside-22_322_7617)"/>
<mask id="path-48-inside-23_322_7617" fill="white">
<path d="M728 13H824V109H728V13Z"/>
</mask>
<path d="M824 109V110H825V109H824ZM824 13H823V109H824H825V13H824ZM824 109V108H728V109V110H824V109Z" fill="#F76319" fill-opacity="0.5" mask="url(#path-48-inside-23_322_7617)"/>
<mask id="path-50-inside-24_322_7617" fill="white">
<path d="M824 13H920V109H824V13Z"/>
</mask>
<path d="M920 109V110H921V109H920ZM920 13H919V109H920H921V13H920ZM920 109V108H824V109V110H920V109Z" fill="#F76319" fill-opacity="0.5" mask="url(#path-50-inside-24_322_7617)"/>
<mask id="path-52-inside-25_322_7617" fill="white">
<path d="M920 13H1016V109H920V13Z"/>
</mask>
<path d="M920 13H1016V109H920V13Z" fill="#F2F4F7"/>
<path d="M1016 109V110H1017V109H1016ZM1016 13H1015V109H1016H1017V13H1016ZM1016 109V108H920V109V110H1016V109Z" fill="#F76319" fill-opacity="0.5" mask="url(#path-52-inside-25_322_7617)"/>
<mask id="path-54-inside-26_322_7617" fill="white">
<path d="M1016 13H1112V109H1016V13Z"/>
</mask>
<path d="M1112 109V110H1113V109H1112ZM1112 13H1111V109H1112H1113V13H1112ZM1112 109V108H1016V109V110H1112V109Z" fill="#F76319" fill-opacity="0.5" mask="url(#path-54-inside-26_322_7617)"/>
<mask id="path-56-inside-27_322_7617" fill="white">
<path d="M1112 13H1208V109H1112V13Z"/>
</mask>
<path d="M1208 109V110H1209V109H1208ZM1208 13H1207V109H1208H1209V13H1208ZM1208 109V108H1112V109V110H1208V109Z" fill="#F76319" fill-opacity="0.5" mask="url(#path-56-inside-27_322_7617)"/>
<mask id="path-58-inside-28_322_7617" fill="white">
<path d="M1208 13H1304V109H1208V13Z"/>
</mask>
<path d="M1304 109V110H1305V109H1304ZM1304 13H1303V109H1304H1305V13H1304ZM1304 109V108H1208V109V110H1304V109Z" fill="#F76319" fill-opacity="0.5" mask="url(#path-58-inside-28_322_7617)"/>
<mask id="path-60-inside-29_322_7617" fill="white">
<path d="M1304 13H1400V109H1304V13Z"/>
</mask>
<path d="M1400 109V110H1401V109H1400ZM1400 13H1399V109H1400H1401V13H1400ZM1400 109V108H1304V109V110H1400V109Z" fill="#F76319" fill-opacity="0.5" mask="url(#path-60-inside-29_322_7617)"/>
<mask id="path-62-inside-30_322_7617" fill="white">
<path d="M1400 13H1496V109H1400V13Z"/>
</mask>
<path d="M1496 109V110H1497V109H1496ZM1496 13H1495V109H1496H1497V13H1496ZM1496 109V108H1400V109V110H1496V109Z" fill="#F76319" fill-opacity="0.5" mask="url(#path-62-inside-30_322_7617)"/>
<mask id="path-64-inside-31_322_7617" fill="white">
<path d="M56 109H152V205H56V109Z"/>
</mask>
<path d="M56 109H152V205H56V109Z" fill="#F2F4F7"/>
<path d="M152 205V206H153V205H152ZM152 109H151V205H152H153V109H152ZM152 205V204H56V205V206H152V205Z" fill="#F76319" fill-opacity="0.5" mask="url(#path-64-inside-31_322_7617)"/>
<mask id="path-66-inside-32_322_7617" fill="white">
<path d="M152 109H248V205H152V109Z"/>
</mask>
<path d="M248 205V206H249V205H248ZM248 109H247V205H248H249V109H248ZM248 205V204H152V205V206H248V205Z" fill="#F76319" fill-opacity="0.5" mask="url(#path-66-inside-32_322_7617)"/>
<mask id="path-68-inside-33_322_7617" fill="white">
<path d="M248 109H344V205H248V109Z"/>
</mask>
<path d="M344 205V206H345V205H344ZM344 109H343V205H344H345V109H344ZM344 205V204H248V205V206H344V205Z" fill="#F76319" fill-opacity="0.5" mask="url(#path-68-inside-33_322_7617)"/>
<mask id="path-70-inside-34_322_7617" fill="white">
<path d="M344 109H440V205H344V109Z"/>
</mask>
<path d="M440 205V206H441V205H440ZM440 109H439V205H440H441V109H440ZM440 205V204H344V205V206H440V205Z" fill="#F76319" fill-opacity="0.5" mask="url(#path-70-inside-34_322_7617)"/>
<mask id="path-72-inside-35_322_7617" fill="white">
<path d="M440 109H536V205H440V109Z"/>
</mask>
<path d="M536 205V206H537V205H536ZM536 109H535V205H536H537V109H536ZM536 205V204H440V205V206H536V205Z" fill="#F76319" fill-opacity="0.5" mask="url(#path-72-inside-35_322_7617)"/>
<mask id="path-74-inside-36_322_7617" fill="white">
<path d="M536 109H632V205H536V109Z"/>
</mask>
<path d="M632 205V206H633V205H632ZM632 109H631V205H632H633V109H632ZM632 205V204H536V205V206H632V205Z" fill="#F76319" fill-opacity="0.5" mask="url(#path-74-inside-36_322_7617)"/>
<mask id="path-76-inside-37_322_7617" fill="white">
<path d="M632 109H728V205H632V109Z"/>
</mask>
<path d="M728 205V206H729V205H728ZM728 109H727V205H728H729V109H728ZM728 205V204H632V205V206H728V205Z" fill="#F76319" fill-opacity="0.5" mask="url(#path-76-inside-37_322_7617)"/>
<mask id="path-78-inside-38_322_7617" fill="white">
<path d="M728 109H824V205H728V109Z"/>
</mask>
<path d="M824 205V206H825V205H824ZM824 109H823V205H824H825V109H824ZM824 205V204H728V205V206H824V205Z" fill="#F76319" fill-opacity="0.5" mask="url(#path-78-inside-38_322_7617)"/>
<mask id="path-80-inside-39_322_7617" fill="white">
<path d="M824 109H920V205H824V109Z"/>
</mask>
<path d="M920 205V206H921V205H920ZM920 109H919V205H920H921V109H920ZM920 205V204H824V205V206H920V205Z" fill="#F76319" fill-opacity="0.5" mask="url(#path-80-inside-39_322_7617)"/>
<mask id="path-82-inside-40_322_7617" fill="white">
<path d="M920 109H1016V205H920V109Z"/>
</mask>
<path d="M1016 205V206H1017V205H1016ZM1016 109H1015V205H1016H1017V109H1016ZM1016 205V204H920V205V206H1016V205Z" fill="#F76319" fill-opacity="0.5" mask="url(#path-82-inside-40_322_7617)"/>
<mask id="path-84-inside-41_322_7617" fill="white">
<path d="M1016 109H1112V205H1016V109Z"/>
</mask>
<path d="M1112 205V206H1113V205H1112ZM1112 109H1111V205H1112H1113V109H1112ZM1112 205V204H1016V205V206H1112V205Z" fill="#F76319" fill-opacity="0.5" mask="url(#path-84-inside-41_322_7617)"/>
<mask id="path-86-inside-42_322_7617" fill="white">
<path d="M1112 109H1208V205H1112V109Z"/>
</mask>
<path d="M1208 205V206H1209V205H1208ZM1208 109H1207V205H1208H1209V109H1208ZM1208 205V204H1112V205V206H1208V205Z" fill="#F76319" fill-opacity="0.5" mask="url(#path-86-inside-42_322_7617)"/>
<mask id="path-88-inside-43_322_7617" fill="white">
<path d="M1208 109H1304V205H1208V109Z"/>
</mask>
<path d="M1208 109H1304V205H1208V109Z" fill="#F2F4F7"/>
<path d="M1304 205V206H1305V205H1304ZM1304 109H1303V205H1304H1305V109H1304ZM1304 205V204H1208V205V206H1304V205Z" fill="#F76319" fill-opacity="0.5" mask="url(#path-88-inside-43_322_7617)"/>
<mask id="path-90-inside-44_322_7617" fill="white">
<path d="M1304 109H1400V205H1304V109Z"/>
</mask>
<path d="M1400 205V206H1401V205H1400ZM1400 109H1399V205H1400H1401V109H1400ZM1400 205V204H1304V205V206H1400V205Z" fill="#F76319" fill-opacity="0.5" mask="url(#path-90-inside-44_322_7617)"/>
<mask id="path-92-inside-45_322_7617" fill="white">
<path d="M1400 109H1496V205H1400V109Z"/>
</mask>
<path d="M1496 205V206H1497V205H1496ZM1496 109H1495V205H1496H1497V109H1496ZM1496 205V204H1400V205V206H1496V205Z" fill="#F76319" fill-opacity="0.5" mask="url(#path-92-inside-45_322_7617)"/>
<mask id="path-94-inside-46_322_7617" fill="white">
<path d="M56 205H152V301H56V205Z"/>
</mask>
<path d="M152 301V302H153V301H152ZM152 205H151V301H152H153V205H152ZM152 301V300H56V301V302H152V301Z" fill="#F76319" fill-opacity="0.5" mask="url(#path-94-inside-46_322_7617)"/>
<mask id="path-96-inside-47_322_7617" fill="white">
<path d="M152 205H248V301H152V205Z"/>
</mask>
<path d="M248 301V302H249V301H248ZM248 205H247V301H248H249V205H248ZM248 301V300H152V301V302H248V301Z" fill="#F76319" fill-opacity="0.5" mask="url(#path-96-inside-47_322_7617)"/>
<mask id="path-98-inside-48_322_7617" fill="white">
<path d="M248 205H344V301H248V205Z"/>
</mask>
<path d="M344 301V302H345V301H344ZM344 205H343V301H344H345V205H344ZM344 301V300H248V301V302H344V301Z" fill="#F76319" fill-opacity="0.5" mask="url(#path-98-inside-48_322_7617)"/>
<mask id="path-100-inside-49_322_7617" fill="white">
<path d="M344 205H440V301H344V205Z"/>
</mask>
<path d="M440 301V302H441V301H440ZM440 205H439V301H440H441V205H440ZM440 301V300H344V301V302H440V301Z" fill="#F76319" fill-opacity="0.5" mask="url(#path-100-inside-49_322_7617)"/>
<mask id="path-102-inside-50_322_7617" fill="white">
<path d="M440 205H536V301H440V205Z"/>
</mask>
<path d="M536 301V302H537V301H536ZM536 205H535V301H536H537V205H536ZM536 301V300H440V301V302H536V301Z" fill="#F76319" fill-opacity="0.5" mask="url(#path-102-inside-50_322_7617)"/>
<mask id="path-104-inside-51_322_7617" fill="white">
<path d="M536 205H632V301H536V205Z"/>
</mask>
<path d="M632 301V302H633V301H632ZM632 205H631V301H632H633V205H632ZM632 301V300H536V301V302H632V301Z" fill="#F76319" fill-opacity="0.5" mask="url(#path-104-inside-51_322_7617)"/>
<mask id="path-106-inside-52_322_7617" fill="white">
<path d="M632 205H728V301H632V205Z"/>
</mask>
<path d="M632 205H728V301H632V205Z" fill="#F2F4F7"/>
<path d="M728 301V302H729V301H728ZM728 205H727V301H728H729V205H728ZM728 301V300H632V301V302H728V301Z" fill="#F76319" fill-opacity="0.5" mask="url(#path-106-inside-52_322_7617)"/>
<mask id="path-108-inside-53_322_7617" fill="white">
<path d="M728 205H824V301H728V205Z"/>
</mask>
<path d="M824 301V302H825V301H824ZM824 205H823V301H824H825V205H824ZM824 301V300H728V301V302H824V301Z" fill="#F76319" fill-opacity="0.5" mask="url(#path-108-inside-53_322_7617)"/>
<mask id="path-110-inside-54_322_7617" fill="white">
<path d="M824 205H920V301H824V205Z"/>
</mask>
<path d="M920 301V302H921V301H920ZM920 205H919V301H920H921V205H920ZM920 301V300H824V301V302H920V301Z" fill="#F76319" fill-opacity="0.5" mask="url(#path-110-inside-54_322_7617)"/>
<mask id="path-112-inside-55_322_7617" fill="white">
<path d="M920 205H1016V301H920V205Z"/>
</mask>
<path d="M1016 301V302H1017V301H1016ZM1016 205H1015V301H1016H1017V205H1016ZM1016 301V300H920V301V302H1016V301Z" fill="#F76319" fill-opacity="0.5" mask="url(#path-112-inside-55_322_7617)"/>
<mask id="path-114-inside-56_322_7617" fill="white">
<path d="M1016 205H1112V301H1016V205Z"/>
</mask>
<path d="M1112 301V302H1113V301H1112ZM1112 205H1111V301H1112H1113V205H1112ZM1112 301V300H1016V301V302H1112V301Z" fill="#F76319" fill-opacity="0.5" mask="url(#path-114-inside-56_322_7617)"/>
<mask id="path-116-inside-57_322_7617" fill="white">
<path d="M1112 205H1208V301H1112V205Z"/>
</mask>
<path d="M1208 301V302H1209V301H1208ZM1208 205H1207V301H1208H1209V205H1208ZM1208 301V300H1112V301V302H1208V301Z" fill="#F76319" fill-opacity="0.5" mask="url(#path-116-inside-57_322_7617)"/>
<mask id="path-118-inside-58_322_7617" fill="white">
<path d="M1208 205H1304V301H1208V205Z"/>
</mask>
<path d="M1304 301V302H1305V301H1304ZM1304 205H1303V301H1304H1305V205H1304ZM1304 301V300H1208V301V302H1304V301Z" fill="#F76319" fill-opacity="0.5" mask="url(#path-118-inside-58_322_7617)"/>
<mask id="path-120-inside-59_322_7617" fill="white">
<path d="M1304 205H1400V301H1304V205Z"/>
</mask>
<path d="M1400 301V302H1401V301H1400ZM1400 205H1399V301H1400H1401V205H1400ZM1400 301V300H1304V301V302H1400V301Z" fill="#F76319" fill-opacity="0.5" mask="url(#path-120-inside-59_322_7617)"/>
<mask id="path-122-inside-60_322_7617" fill="white">
<path d="M1400 205H1496V301H1400V205Z"/>
</mask>
<path d="M1496 301V302H1497V301H1496ZM1496 205H1495V301H1496H1497V205H1496ZM1496 301V300H1400V301V302H1496V301Z" fill="#F76319" fill-opacity="0.5" mask="url(#path-122-inside-60_322_7617)"/>
<mask id="path-124-inside-61_322_7617" fill="white">
<path d="M56 301H152V397H56V301Z"/>
</mask>
<path d="M152 397V398H153V397H152ZM152 301H151V397H152H153V301H152ZM152 397V396H56V397V398H152V397Z" fill="#F76319" fill-opacity="0.5" mask="url(#path-124-inside-61_322_7617)"/>
<mask id="path-126-inside-62_322_7617" fill="white">
<path d="M152 301H248V397H152V301Z"/>
</mask>
<path d="M248 397V398H249V397H248ZM248 301H247V397H248H249V301H248ZM248 397V396H152V397V398H248V397Z" fill="#F76319" fill-opacity="0.5" mask="url(#path-126-inside-62_322_7617)"/>
<mask id="path-128-inside-63_322_7617" fill="white">
<path d="M248 301H344V397H248V301Z"/>
</mask>
<path d="M344 397V398H345V397H344ZM344 301H343V397H344H345V301H344ZM344 397V396H248V397V398H344V397Z" fill="#F76319" fill-opacity="0.5" mask="url(#path-128-inside-63_322_7617)"/>
<mask id="path-130-inside-64_322_7617" fill="white">
<path d="M344 301H440V397H344V301Z"/>
</mask>
<path d="M344 301H440V397H344V301Z" fill="#F2F4F7"/>
<path d="M440 397V398H441V397H440ZM440 301H439V397H440H441V301H440ZM440 397V396H344V397V398H440V397Z" fill="#F76319" fill-opacity="0.5" mask="url(#path-130-inside-64_322_7617)"/>
<mask id="path-132-inside-65_322_7617" fill="white">
<path d="M440 301H536V397H440V301Z"/>
</mask>
<path d="M536 397V398H537V397H536ZM536 301H535V397H536H537V301H536ZM536 397V396H440V397V398H536V397Z" fill="#F76319" fill-opacity="0.5" mask="url(#path-132-inside-65_322_7617)"/>
<mask id="path-134-inside-66_322_7617" fill="white">
<path d="M536 301H632V397H536V301Z"/>
</mask>
<path d="M632 397V398H633V397H632ZM632 301H631V397H632H633V301H632ZM632 397V396H536V397V398H632V397Z" fill="#F76319" fill-opacity="0.5" mask="url(#path-134-inside-66_322_7617)"/>
<mask id="path-136-inside-67_322_7617" fill="white">
<path d="M632 301H728V397H632V301Z"/>
</mask>
<path d="M728 397V398H729V397H728ZM728 301H727V397H728H729V301H728ZM728 397V396H632V397V398H728V397Z" fill="#F76319" fill-opacity="0.5" mask="url(#path-136-inside-67_322_7617)"/>
<mask id="path-138-inside-68_322_7617" fill="white">
<path d="M728 301H824V397H728V301Z"/>
</mask>
<path d="M824 397V398H825V397H824ZM824 301H823V397H824H825V301H824ZM824 397V396H728V397V398H824V397Z" fill="#F76319" fill-opacity="0.5" mask="url(#path-138-inside-68_322_7617)"/>
<mask id="path-140-inside-69_322_7617" fill="white">
<path d="M824 301H920V397H824V301Z"/>
</mask>
<path d="M920 397V398H921V397H920ZM920 301H919V397H920H921V301H920ZM920 397V396H824V397V398H920V397Z" fill="#F76319" fill-opacity="0.5" mask="url(#path-140-inside-69_322_7617)"/>
<mask id="path-142-inside-70_322_7617" fill="white">
<path d="M920 301H1016V397H920V301Z"/>
</mask>
<path d="M920 301H1016V397H920V301Z" fill="#F2F4F7"/>
<path d="M1016 397V398H1017V397H1016ZM1016 301H1015V397H1016H1017V301H1016ZM1016 397V396H920V397V398H1016V397Z" fill="#F76319" fill-opacity="0.5" mask="url(#path-142-inside-70_322_7617)"/>
<mask id="path-144-inside-71_322_7617" fill="white">
<path d="M1016 301H1112V397H1016V301Z"/>
</mask>
<path d="M1112 397V398H1113V397H1112ZM1112 301H1111V397H1112H1113V301H1112ZM1112 397V396H1016V397V398H1112V397Z" fill="#F76319" fill-opacity="0.5" mask="url(#path-144-inside-71_322_7617)"/>
<mask id="path-146-inside-72_322_7617" fill="white">
<path d="M1112 301H1208V397H1112V301Z"/>
</mask>
<path d="M1208 397V398H1209V397H1208ZM1208 301H1207V397H1208H1209V301H1208ZM1208 397V396H1112V397V398H1208V397Z" fill="#F76319" fill-opacity="0.5" mask="url(#path-146-inside-72_322_7617)"/>
<mask id="path-148-inside-73_322_7617" fill="white">
<path d="M1208 301H1304V397H1208V301Z"/>
</mask>
<path d="M1304 397V398H1305V397H1304ZM1304 301H1303V397H1304H1305V301H1304ZM1304 397V396H1208V397V398H1304V397Z" fill="#F76319" fill-opacity="0.5" mask="url(#path-148-inside-73_322_7617)"/>
<mask id="path-150-inside-74_322_7617" fill="white">
<path d="M1304 301H1400V397H1304V301Z"/>
</mask>
<path d="M1400 397V398H1401V397H1400ZM1400 301H1399V397H1400H1401V301H1400ZM1400 397V396H1304V397V398H1400V397Z" fill="#F76319" fill-opacity="0.5" mask="url(#path-150-inside-74_322_7617)"/>
<mask id="path-152-inside-75_322_7617" fill="white">
<path d="M1400 301H1496V397H1400V301Z"/>
</mask>
<path d="M1496 397V398H1497V397H1496ZM1496 301H1495V397H1496H1497V301H1496ZM1496 397V396H1400V397V398H1496V397Z" fill="#F76319" fill-opacity="0.5" mask="url(#path-152-inside-75_322_7617)"/>
<mask id="path-154-inside-76_322_7617" fill="white">
<path d="M56 397H152V493H56V397Z"/>
</mask>
<path d="M152 493V494H153V493H152ZM152 397H151V493H152H153V397H152ZM152 493V492H56V493V494H152V493Z" fill="#F76319" fill-opacity="0.5" mask="url(#path-154-inside-76_322_7617)"/>
<mask id="path-156-inside-77_322_7617" fill="white">
<path d="M152 397H248V493H152V397Z"/>
</mask>
<path d="M152 397H248V493H152V397Z" fill="#F2F4F7"/>
<path d="M248 493V494H249V493H248ZM248 397H247V493H248H249V397H248ZM248 493V492H152V493V494H248V493Z" fill="#F76319" fill-opacity="0.5" mask="url(#path-156-inside-77_322_7617)"/>
<mask id="path-158-inside-78_322_7617" fill="white">
<path d="M248 397H344V493H248V397Z"/>
</mask>
<path d="M344 493V494H345V493H344ZM344 397H343V493H344H345V397H344ZM344 493V492H248V493V494H344V493Z" fill="#F76319" fill-opacity="0.5" mask="url(#path-158-inside-78_322_7617)"/>
<mask id="path-160-inside-79_322_7617" fill="white">
<path d="M344 397H440V493H344V397Z"/>
</mask>
<path d="M440 493V494H441V493H440ZM440 397H439V493H440H441V397H440ZM440 493V492H344V493V494H440V493Z" fill="#F76319" fill-opacity="0.5" mask="url(#path-160-inside-79_322_7617)"/>
<mask id="path-162-inside-80_322_7617" fill="white">
<path d="M440 397H536V493H440V397Z"/>
</mask>
<path d="M536 493V494H537V493H536ZM536 397H535V493H536H537V397H536ZM536 493V492H440V493V494H536V493Z" fill="#F76319" fill-opacity="0.5" mask="url(#path-162-inside-80_322_7617)"/>
<mask id="path-164-inside-81_322_7617" fill="white">
<path d="M536 397H632V493H536V397Z"/>
</mask>
<path d="M632 493V494H633V493H632ZM632 397H631V493H632H633V397H632ZM632 493V492H536V493V494H632V493Z" fill="#F76319" fill-opacity="0.5" mask="url(#path-164-inside-81_322_7617)"/>
<mask id="path-166-inside-82_322_7617" fill="white">
<path d="M632 397H728V493H632V397Z"/>
</mask>
<path d="M728 493V494H729V493H728ZM728 397H727V493H728H729V397H728ZM728 493V492H632V493V494H728V493Z" fill="#F76319" fill-opacity="0.5" mask="url(#path-166-inside-82_322_7617)"/>
<mask id="path-168-inside-83_322_7617" fill="white">
<path d="M728 397H824V493H728V397Z"/>
</mask>
<path d="M824 493V494H825V493H824ZM824 397H823V493H824H825V397H824ZM824 493V492H728V493V494H824V493Z" fill="#F76319" fill-opacity="0.5" mask="url(#path-168-inside-83_322_7617)"/>
<mask id="path-170-inside-84_322_7617" fill="white">
<path d="M824 397H920V493H824V397Z"/>
</mask>
<path d="M920 493V494H921V493H920ZM920 397H919V493H920H921V397H920ZM920 493V492H824V493V494H920V493Z" fill="#F76319" fill-opacity="0.5" mask="url(#path-170-inside-84_322_7617)"/>
<mask id="path-172-inside-85_322_7617" fill="white">
<path d="M920 397H1016V493H920V397Z"/>
</mask>
<path d="M1016 493V494H1017V493H1016ZM1016 397H1015V493H1016H1017V397H1016ZM1016 493V492H920V493V494H1016V493Z" fill="#F76319" fill-opacity="0.5" mask="url(#path-172-inside-85_322_7617)"/>
<mask id="path-174-inside-86_322_7617" fill="white">
<path d="M1016 397H1112V493H1016V397Z"/>
</mask>
<path d="M1112 493V494H1113V493H1112ZM1112 397H1111V493H1112H1113V397H1112ZM1112 493V492H1016V493V494H1112V493Z" fill="#F76319" fill-opacity="0.5" mask="url(#path-174-inside-86_322_7617)"/>
<mask id="path-176-inside-87_322_7617" fill="white">
<path d="M1112 397H1208V493H1112V397Z"/>
</mask>
<path d="M1208 493V494H1209V493H1208ZM1208 397H1207V493H1208H1209V397H1208ZM1208 493V492H1112V493V494H1208V493Z" fill="#F76319" fill-opacity="0.5" mask="url(#path-176-inside-87_322_7617)"/>
<mask id="path-178-inside-88_322_7617" fill="white">
<path d="M1208 397H1304V493H1208V397Z"/>
</mask>
<path d="M1304 493V494H1305V493H1304ZM1304 397H1303V493H1304H1305V397H1304ZM1304 493V492H1208V493V494H1304V493Z" fill="#F76319" fill-opacity="0.5" mask="url(#path-178-inside-88_322_7617)"/>
<mask id="path-180-inside-89_322_7617" fill="white">
<path d="M1304 397H1400V493H1304V397Z"/>
</mask>
<path d="M1400 493V494H1401V493H1400ZM1400 397H1399V493H1400H1401V397H1400ZM1400 493V492H1304V493V494H1400V493Z" fill="#F76319" fill-opacity="0.5" mask="url(#path-180-inside-89_322_7617)"/>
<mask id="path-182-inside-90_322_7617" fill="white">
<path d="M1400 397H1496V493H1400V397Z"/>
</mask>
<path d="M1400 397H1496V493H1400V397Z" fill="#F2F4F7"/>
<path d="M1496 493V494H1497V493H1496ZM1496 397H1495V493H1496H1497V397H1496ZM1496 493V492H1400V493V494H1496V493Z" fill="#F76319" fill-opacity="0.5" mask="url(#path-182-inside-90_322_7617)"/>
<mask id="path-184-inside-91_322_7617" fill="white">
<path d="M56 493H152V589H56V493Z"/>
</mask>
<path d="M152 589V590H153V589H152ZM152 493H151V589H152H153V493H152ZM152 589V588H56V589V590H152V589Z" fill="#F76319" fill-opacity="0.5" mask="url(#path-184-inside-91_322_7617)"/>
<mask id="path-186-inside-92_322_7617" fill="white">
<path d="M152 493H248V589H152V493Z"/>
</mask>
<path d="M248 589V590H249V589H248ZM248 493H247V589H248H249V493H248ZM248 589V588H152V589V590H248V589Z" fill="#F76319" fill-opacity="0.5" mask="url(#path-186-inside-92_322_7617)"/>
<mask id="path-188-inside-93_322_7617" fill="white">
<path d="M248 493H344V589H248V493Z"/>
</mask>
<path d="M344 589V590H345V589H344ZM344 493H343V589H344H345V493H344ZM344 589V588H248V589V590H344V589Z" fill="#F76319" fill-opacity="0.5" mask="url(#path-188-inside-93_322_7617)"/>
<mask id="path-190-inside-94_322_7617" fill="white">
<path d="M344 493H440V589H344V493Z"/>
</mask>
<path d="M440 589V590H441V589H440ZM440 493H439V589H440H441V493H440ZM440 589V588H344V589V590H440V589Z" fill="#F76319" fill-opacity="0.5" mask="url(#path-190-inside-94_322_7617)"/>
<mask id="path-192-inside-95_322_7617" fill="white">
<path d="M440 493H536V589H440V493Z"/>
</mask>
<path d="M536 589V590H537V589H536ZM536 493H535V589H536H537V493H536ZM536 589V588H440V589V590H536V589Z" fill="#F76319" fill-opacity="0.5" mask="url(#path-192-inside-95_322_7617)"/>
<mask id="path-194-inside-96_322_7617" fill="white">
<path d="M536 493H632V589H536V493Z"/>
</mask>
<path d="M632 589V590H633V589H632ZM632 493H631V589H632H633V493H632ZM632 589V588H536V589V590H632V589Z" fill="#F76319" fill-opacity="0.5" mask="url(#path-194-inside-96_322_7617)"/>
<mask id="path-196-inside-97_322_7617" fill="white">
<path d="M632 493H728V589H632V493Z"/>
</mask>
<path d="M632 493H728V589H632V493Z" fill="#F2F4F7"/>
<path d="M728 589V590H729V589H728ZM728 493H727V589H728H729V493H728ZM728 589V588H632V589V590H728V589Z" fill="#F76319" fill-opacity="0.5" mask="url(#path-196-inside-97_322_7617)"/>
<mask id="path-198-inside-98_322_7617" fill="white">
<path d="M728 493H824V589H728V493Z"/>
</mask>
<path d="M824 589V590H825V589H824ZM824 493H823V589H824H825V493H824ZM824 589V588H728V589V590H824V589Z" fill="#F76319" fill-opacity="0.5" mask="url(#path-198-inside-98_322_7617)"/>
<mask id="path-200-inside-99_322_7617" fill="white">
<path d="M824 493H920V589H824V493Z"/>
</mask>
<path d="M920 589V590H921V589H920ZM920 493H919V589H920H921V493H920ZM920 589V588H824V589V590H920V589Z" fill="#F76319" fill-opacity="0.5" mask="url(#path-200-inside-99_322_7617)"/>
<mask id="path-202-inside-100_322_7617" fill="white">
<path d="M920 493H1016V589H920V493Z"/>
</mask>
<path d="M1016 589V590H1017V589H1016ZM1016 493H1015V589H1016H1017V493H1016ZM1016 589V588H920V589V590H1016V589Z" fill="#F76319" fill-opacity="0.5" mask="url(#path-202-inside-100_322_7617)"/>
<mask id="path-204-inside-101_322_7617" fill="white">
<path d="M1016 493H1112V589H1016V493Z"/>
</mask>
<path d="M1112 589V590H1113V589H1112ZM1112 493H1111V589H1112H1113V493H1112ZM1112 589V588H1016V589V590H1112V589Z" fill="#F76319" fill-opacity="0.5" mask="url(#path-204-inside-101_322_7617)"/>
<mask id="path-206-inside-102_322_7617" fill="white">
<path d="M1112 493H1208V589H1112V493Z"/>
</mask>
<path d="M1208 589V590H1209V589H1208ZM1208 493H1207V589H1208H1209V493H1208ZM1208 589V588H1112V589V590H1208V589Z" fill="#F76319" fill-opacity="0.5" mask="url(#path-206-inside-102_322_7617)"/>
<mask id="path-208-inside-103_322_7617" fill="white">
<path d="M1208 493H1304V589H1208V493Z"/>
</mask>
<path d="M1208 493H1304V589H1208V493Z" fill="#F2F4F7"/>
<path d="M1304 589V590H1305V589H1304ZM1304 493H1303V589H1304H1305V493H1304ZM1304 589V588H1208V589V590H1304V589Z" fill="#F76319" fill-opacity="0.5" mask="url(#path-208-inside-103_322_7617)"/>
<mask id="path-210-inside-104_322_7617" fill="white">
<path d="M1304 493H1400V589H1304V493Z"/>
</mask>
<path d="M1400 589V590H1401V589H1400ZM1400 493H1399V589H1400H1401V493H1400ZM1400 589V588H1304V589V590H1400V589Z" fill="#F76319" fill-opacity="0.5" mask="url(#path-210-inside-104_322_7617)"/>
<mask id="path-212-inside-105_322_7617" fill="white">
<path d="M1400 493H1496V589H1400V493Z"/>
</mask>
<path d="M1496 589V590H1497V589H1496ZM1496 493H1495V589H1496H1497V493H1496ZM1496 589V588H1400V589V590H1496V589Z" fill="#F76319" fill-opacity="0.5" mask="url(#path-212-inside-105_322_7617)"/>
<mask id="path-214-inside-106_322_7617" fill="white">
<path d="M56 589H152V685H56V589Z"/>
</mask>
<path d="M152 685V686H153V685H152ZM152 589H151V685H152H153V589H152ZM152 685V684H56V685V686H152V685Z" fill="#F76319" fill-opacity="0.5" mask="url(#path-214-inside-106_322_7617)"/>
<mask id="path-216-inside-107_322_7617" fill="white">
<path d="M152 589H248V685H152V589Z"/>
</mask>
<path d="M248 685V686H249V685H248ZM248 589H247V685H248H249V589H248ZM248 685V684H152V685V686H248V685Z" fill="#F76319" fill-opacity="0.5" mask="url(#path-216-inside-107_322_7617)"/>
<mask id="path-218-inside-108_322_7617" fill="white">
<path d="M248 589H344V685H248V589Z"/>
</mask>
<path d="M344 685V686H345V685H344ZM344 589H343V685H344H345V589H344ZM344 685V684H248V685V686H344V685Z" fill="#F76319" fill-opacity="0.5" mask="url(#path-218-inside-108_322_7617)"/>
<mask id="path-220-inside-109_322_7617" fill="white">
<path d="M344 589H440V685H344V589Z"/>
</mask>
<path d="M344 589H440V685H344V589Z" fill="#F2F4F7"/>
<path d="M440 685V686H441V685H440ZM440 589H439V685H440H441V589H440ZM440 685V684H344V685V686H440V685Z" fill="#F76319" fill-opacity="0.5" mask="url(#path-220-inside-109_322_7617)"/>
<mask id="path-222-inside-110_322_7617" fill="white">
<path d="M440 589H536V685H440V589Z"/>
</mask>
<path d="M536 685V686H537V685H536ZM536 589H535V685H536H537V589H536ZM536 685V684H440V685V686H536V685Z" fill="#F76319" fill-opacity="0.5" mask="url(#path-222-inside-110_322_7617)"/>
<mask id="path-224-inside-111_322_7617" fill="white">
<path d="M536 589H632V685H536V589Z"/>
</mask>
<path d="M632 685V686H633V685H632ZM632 589H631V685H632H633V589H632ZM632 685V684H536V685V686H632V685Z" fill="#F76319" fill-opacity="0.5" mask="url(#path-224-inside-111_322_7617)"/>
<mask id="path-226-inside-112_322_7617" fill="white">
<path d="M632 589H728V685H632V589Z"/>
</mask>
<path d="M728 685V686H729V685H728ZM728 589H727V685H728H729V589H728ZM728 685V684H632V685V686H728V685Z" fill="#F76319" fill-opacity="0.5" mask="url(#path-226-inside-112_322_7617)"/>
<mask id="path-228-inside-113_322_7617" fill="white">
<path d="M728 589H824V685H728V589Z"/>
</mask>
<path d="M824 685V686H825V685H824ZM824 589H823V685H824H825V589H824ZM824 685V684H728V685V686H824V685Z" fill="#F76319" fill-opacity="0.5" mask="url(#path-228-inside-113_322_7617)"/>
<mask id="path-230-inside-114_322_7617" fill="white">
<path d="M824 589H920V685H824V589Z"/>
</mask>
<path d="M920 685V686H921V685H920ZM920 589H919V685H920H921V589H920ZM920 685V684H824V685V686H920V685Z" fill="#F76319" fill-opacity="0.5" mask="url(#path-230-inside-114_322_7617)"/>
<mask id="path-232-inside-115_322_7617" fill="white">
<path d="M920 589H1016V685H920V589Z"/>
</mask>
<path d="M920 589H1016V685H920V589Z" fill="#F2F4F7"/>
<path d="M1016 685V686H1017V685H1016ZM1016 589H1015V685H1016H1017V589H1016ZM1016 685V684H920V685V686H1016V685Z" fill="#F76319" fill-opacity="0.5" mask="url(#path-232-inside-115_322_7617)"/>
<mask id="path-234-inside-116_322_7617" fill="white">
<path d="M1016 589H1112V685H1016V589Z"/>
</mask>
<path d="M1112 685V686H1113V685H1112ZM1112 589H1111V685H1112H1113V589H1112ZM1112 685V684H1016V685V686H1112V685Z" fill="#F76319" fill-opacity="0.5" mask="url(#path-234-inside-116_322_7617)"/>
<mask id="path-236-inside-117_322_7617" fill="white">
<path d="M1112 589H1208V685H1112V589Z"/>
</mask>
<path d="M1208 685V686H1209V685H1208ZM1208 589H1207V685H1208H1209V589H1208ZM1208 685V684H1112V685V686H1208V685Z" fill="#F76319" fill-opacity="0.5" mask="url(#path-236-inside-117_322_7617)"/>
<mask id="path-238-inside-118_322_7617" fill="white">
<path d="M1208 589H1304V685H1208V589Z"/>
</mask>
<path d="M1304 685V686H1305V685H1304ZM1304 589H1303V685H1304H1305V589H1304ZM1304 685V684H1208V685V686H1304V685Z" fill="#F76319" fill-opacity="0.5" mask="url(#path-238-inside-118_322_7617)"/>
<mask id="path-240-inside-119_322_7617" fill="white">
<path d="M1304 589H1400V685H1304V589Z"/>
</mask>
<path d="M1400 685V686H1401V685H1400ZM1400 589H1399V685H1400H1401V589H1400ZM1400 685V684H1304V685V686H1400V685Z" fill="#F76319" fill-opacity="0.5" mask="url(#path-240-inside-119_322_7617)"/>
<mask id="path-242-inside-120_322_7617" fill="white">
<path d="M1400 589H1496V685H1400V589Z"/>
</mask>
<path d="M1496 685V686H1497V685H1496ZM1496 589H1495V685H1496H1497V589H1496ZM1496 685V684H1400V685V686H1496V685Z" fill="#F76319" fill-opacity="0.5" mask="url(#path-242-inside-120_322_7617)"/>
<mask id="path-244-inside-121_322_7617" fill="white">
<path d="M56 685H152V781H56V685Z"/>
</mask>
<path d="M152 781V782H153V781H152ZM152 685H151V781H152H153V685H152ZM152 781V780H56V781V782H152V781Z" fill="#F76319" fill-opacity="0.5" mask="url(#path-244-inside-121_322_7617)"/>
<mask id="path-246-inside-122_322_7617" fill="white">
<path d="M152 685H248V781H152V685Z"/>
</mask>
<path d="M248 781V782H249V781H248ZM248 685H247V781H248H249V685H248ZM248 781V780H152V781V782H248V781Z" fill="#F76319" fill-opacity="0.5" mask="url(#path-246-inside-122_322_7617)"/>
<mask id="path-248-inside-123_322_7617" fill="white">
<path d="M248 685H344V781H248V685Z"/>
</mask>
<path d="M344 781V782H345V781H344ZM344 685H343V781H344H345V685H344ZM344 781V780H248V781V782H344V781Z" fill="#F76319" fill-opacity="0.5" mask="url(#path-248-inside-123_322_7617)"/>
<mask id="path-250-inside-124_322_7617" fill="white">
<path d="M344 685H440V781H344V685Z"/>
</mask>
<path d="M440 781V782H441V781H440ZM440 685H439V781H440H441V685H440ZM440 781V780H344V781V782H440V781Z" fill="#F76319" fill-opacity="0.5" mask="url(#path-250-inside-124_322_7617)"/>
<mask id="path-252-inside-125_322_7617" fill="white">
<path d="M440 685H536V781H440V685Z"/>
</mask>
<path d="M536 781V782H537V781H536ZM536 685H535V781H536H537V685H536ZM536 781V780H440V781V782H536V781Z" fill="#F76319" fill-opacity="0.5" mask="url(#path-252-inside-125_322_7617)"/>
<mask id="path-254-inside-126_322_7617" fill="white">
<path d="M536 685H632V781H536V685Z"/>
</mask>
<path d="M632 781V782H633V781H632ZM632 685H631V781H632H633V685H632ZM632 781V780H536V781V782H632V781Z" fill="#F76319" fill-opacity="0.5" mask="url(#path-254-inside-126_322_7617)"/>
<mask id="path-256-inside-127_322_7617" fill="white">
<path d="M632 685H728V781H632V685Z"/>
</mask>
<path d="M728 781V782H729V781H728ZM728 685H727V781H728H729V685H728ZM728 781V780H632V781V782H728V781Z" fill="#F76319" fill-opacity="0.5" mask="url(#path-256-inside-127_322_7617)"/>
<mask id="path-258-inside-128_322_7617" fill="white">
<path d="M728 685H824V781H728V685Z"/>
</mask>
<path d="M824 781V782H825V781H824ZM824 685H823V781H824H825V685H824ZM824 781V780H728V781V782H824V781Z" fill="#F76319" fill-opacity="0.5" mask="url(#path-258-inside-128_322_7617)"/>
<mask id="path-260-inside-129_322_7617" fill="white">
<path d="M824 685H920V781H824V685Z"/>
</mask>
<path d="M920 781V782H921V781H920ZM920 685H919V781H920H921V685H920ZM920 781V780H824V781V782H920V781Z" fill="#F76319" fill-opacity="0.5" mask="url(#path-260-inside-129_322_7617)"/>
<mask id="path-262-inside-130_322_7617" fill="white">
<path d="M920 685H1016V781H920V685Z"/>
</mask>
<path d="M1016 781V782H1017V781H1016ZM1016 685H1015V781H1016H1017V685H1016ZM1016 781V780H920V781V782H1016V781Z" fill="#F76319" fill-opacity="0.5" mask="url(#path-262-inside-130_322_7617)"/>
<mask id="path-264-inside-131_322_7617" fill="white">
<path d="M1016 685H1112V781H1016V685Z"/>
</mask>
<path d="M1112 781V782H1113V781H1112ZM1112 685H1111V781H1112H1113V685H1112ZM1112 781V780H1016V781V782H1112V781Z" fill="#F76319" fill-opacity="0.5" mask="url(#path-264-inside-131_322_7617)"/>
<mask id="path-266-inside-132_322_7617" fill="white">
<path d="M1112 685H1208V781H1112V685Z"/>
</mask>
<path d="M1208 781V782H1209V781H1208ZM1208 685H1207V781H1208H1209V685H1208ZM1208 781V780H1112V781V782H1208V781Z" fill="#F76319" fill-opacity="0.5" mask="url(#path-266-inside-132_322_7617)"/>
<mask id="path-268-inside-133_322_7617" fill="white">
<path d="M1208 685H1304V781H1208V685Z"/>
</mask>
<path d="M1304 781V782H1305V781H1304ZM1304 685H1303V781H1304H1305V685H1304ZM1304 781V780H1208V781V782H1304V781Z" fill="#F76319" fill-opacity="0.5" mask="url(#path-268-inside-133_322_7617)"/>
<mask id="path-270-inside-134_322_7617" fill="white">
<path d="M1304 685H1400V781H1304V685Z"/>
</mask>
<path d="M1400 781V782H1401V781H1400ZM1400 685H1399V781H1400H1401V685H1400ZM1400 781V780H1304V781V782H1400V781Z" fill="#F76319" fill-opacity="0.5" mask="url(#path-270-inside-134_322_7617)"/>
<mask id="path-272-inside-135_322_7617" fill="white">
<path d="M1400 685H1496V781H1400V685Z"/>
</mask>
<path d="M1496 781V782H1497V781H1496ZM1496 685H1495V781H1496H1497V685H1496ZM1496 781V780H1400V781V782H1496V781Z" fill="#F76319" fill-opacity="0.5" mask="url(#path-272-inside-135_322_7617)"/>
<mask id="path-274-inside-136_322_7617" fill="white">
<path d="M56 781H152V877H56V781Z"/>
</mask>
<path d="M152 877V878H153V877H152ZM152 781H151V877H152H153V781H152ZM152 877V876H56V877V878H152V877Z" fill="#F76319" fill-opacity="0.5" mask="url(#path-274-inside-136_322_7617)"/>
<mask id="path-276-inside-137_322_7617" fill="white">
<path d="M152 781H248V877H152V781Z"/>
</mask>
<path d="M248 877V878H249V877H248ZM248 781H247V877H248H249V781H248ZM248 877V876H152V877V878H248V877Z" fill="#F76319" fill-opacity="0.5" mask="url(#path-276-inside-137_322_7617)"/>
<mask id="path-278-inside-138_322_7617" fill="white">
<path d="M248 781H344V877H248V781Z"/>
</mask>
<path d="M344 877V878H345V877H344ZM344 781H343V877H344H345V781H344ZM344 877V876H248V877V878H344V877Z" fill="#F76319" fill-opacity="0.5" mask="url(#path-278-inside-138_322_7617)"/>
<mask id="path-280-inside-139_322_7617" fill="white">
<path d="M344 781H440V877H344V781Z"/>
</mask>
<path d="M440 877V878H441V877H440ZM440 781H439V877H440H441V781H440ZM440 877V876H344V877V878H440V877Z" fill="#F76319" fill-opacity="0.5" mask="url(#path-280-inside-139_322_7617)"/>
<mask id="path-282-inside-140_322_7617" fill="white">
<path d="M440 781H536V877H440V781Z"/>
</mask>
<path d="M440 781H536V877H440V781Z" fill="#F2F4F7"/>
<path d="M536 877V878H537V877H536ZM536 781H535V877H536H537V781H536ZM536 877V876H440V877V878H536V877Z" fill="#F76319" fill-opacity="0.5" mask="url(#path-282-inside-140_322_7617)"/>
<mask id="path-284-inside-141_322_7617" fill="white">
<path d="M536 781H632V877H536V781Z"/>
</mask>
<path d="M632 877V878H633V877H632ZM632 781H631V877H632H633V781H632ZM632 877V876H536V877V878H632V877Z" fill="#F76319" fill-opacity="0.5" mask="url(#path-284-inside-141_322_7617)"/>
<mask id="path-286-inside-142_322_7617" fill="white">
<path d="M632 781H728V877H632V781Z"/>
</mask>
<path d="M728 877V878H729V877H728ZM728 781H727V877H728H729V781H728ZM728 877V876H632V877V878H728V877Z" fill="#F76319" fill-opacity="0.5" mask="url(#path-286-inside-142_322_7617)"/>
<mask id="path-288-inside-143_322_7617" fill="white">
<path d="M728 781H824V877H728V781Z"/>
</mask>
<path d="M824 877V878H825V877H824ZM824 781H823V877H824H825V781H824ZM824 877V876H728V877V878H824V877Z" fill="#F76319" fill-opacity="0.5" mask="url(#path-288-inside-143_322_7617)"/>
<mask id="path-290-inside-144_322_7617" fill="white">
<path d="M824 781H920V877H824V781Z"/>
</mask>
<path d="M824 781H920V877H824V781Z" fill="#F2F4F7"/>
<path d="M920 877V878H921V877H920ZM920 781H919V877H920H921V781H920ZM920 877V876H824V877V878H920V877Z" fill="#F76319" fill-opacity="0.5" mask="url(#path-290-inside-144_322_7617)"/>
<mask id="path-292-inside-145_322_7617" fill="white">
<path d="M920 781H1016V877H920V781Z"/>
</mask>
<path d="M1016 877V878H1017V877H1016ZM1016 781H1015V877H1016H1017V781H1016ZM1016 877V876H920V877V878H1016V877Z" fill="#F76319" fill-opacity="0.5" mask="url(#path-292-inside-145_322_7617)"/>
<mask id="path-294-inside-146_322_7617" fill="white">
<path d="M1016 781H1112V877H1016V781Z"/>
</mask>
<path d="M1112 877V878H1113V877H1112ZM1112 781H1111V877H1112H1113V781H1112ZM1112 877V876H1016V877V878H1112V877Z" fill="#F76319" fill-opacity="0.5" mask="url(#path-294-inside-146_322_7617)"/>
<mask id="path-296-inside-147_322_7617" fill="white">
<path d="M1112 781H1208V877H1112V781Z"/>
</mask>
<path d="M1208 877V878H1209V877H1208ZM1208 781H1207V877H1208H1209V781H1208ZM1208 877V876H1112V877V878H1208V877Z" fill="#F76319" fill-opacity="0.5" mask="url(#path-296-inside-147_322_7617)"/>
<mask id="path-298-inside-148_322_7617" fill="white">
<path d="M1208 781H1304V877H1208V781Z"/>
</mask>
<path d="M1304 877V878H1305V877H1304ZM1304 781H1303V877H1304H1305V781H1304ZM1304 877V876H1208V877V878H1304V877Z" fill="#F76319" fill-opacity="0.5" mask="url(#path-298-inside-148_322_7617)"/>
<mask id="path-300-inside-149_322_7617" fill="white">
<path d="M1304 781H1400V877H1304V781Z"/>
</mask>
<path d="M1400 877V878H1401V877H1400ZM1400 781H1399V877H1400H1401V781H1400ZM1400 877V876H1304V877V878H1400V877Z" fill="#F76319" fill-opacity="0.5" mask="url(#path-300-inside-149_322_7617)"/>
<mask id="path-302-inside-150_322_7617" fill="white">
<path d="M1400 781H1496V877H1400V781Z"/>
</mask>
<path d="M1496 877V878H1497V877H1496ZM1496 781H1495V877H1496H1497V781H1496ZM1496 877V876H1400V877V878H1496V877Z" fill="#F76319" fill-opacity="0.5" mask="url(#path-302-inside-150_322_7617)"/>
</g>
<rect x="-135.5" y="-178.5" width="1919" height="1439" stroke="#F76319" stroke-opacity="0.5"/>
</g>
</g>
</g>
<defs>
<radialGradient id="paint0_radial_322_7617" cx="0" cy="0" r="1" gradientUnits="userSpaceOnUse" gradientTransform="translate(720 -0.000171661) rotate(90) scale(1440 751.588)">
<stop/>
<stop offset="0.953125" stop-opacity="0"/>
</radialGradient>
<clipPath id="clip0_322_7617">
<rect width="1440" height="864" fill="white"/>
</clipPath>
<clipPath id="clip1_322_7617">
<rect x="-136" y="-179" width="1920" height="1440" fill="white"/>
</clipPath>
</defs>
</svg>
