<svg width="100" height="100" viewBox="0 0 100 100" fill="none" xmlns="http://www.w3.org/2000/svg">
<g clip-path="url(#clip0_297_4354)">
<rect width="100" height="100" rx="50" fill="#FFFEF6"/>
<g clip-path="url(#clip1_297_4354)">
<path d="M86.6537 76.996L80.6428 67.9869C80.6428 67.9869 79.641 60.4487 75.6338 56.9554L71.877 51.8074L65.8661 47.3948C65.8661 47.3948 59.6048 39.305 55.347 38.9373C51.0893 38.5696 21.2854 47.9463 21.2854 47.9463C21.2854 47.9463 11.5177 48.8656 12.0186 51.8074C12.5195 54.7491 14.6484 55.3045 14.6484 55.3045L19.2818 56.22L20.7845 56.0361L34.0585 56.22L22.0368 58.9778L18.0295 59.8971C18.0295 59.8971 13.7718 61.2453 14.6484 63.8807C15.525 66.516 18.0295 66.516 18.0295 66.516L23.0386 66.3322L28.2981 65.7806L36.563 68.7223L30.0513 71.8479L30.5522 73.6865C30.5522 73.6865 29.0494 75.7089 30.5522 77.3637L32.0549 79.7538C32.0549 79.7538 34.5594 81.0408 36.563 79.2023C36.563 79.2023 37.8153 78.8345 37.8153 78.0991C37.8153 77.3637 38.0658 76.6282 38.0658 76.6282C38.0658 76.6282 38.5667 76.4444 39.5685 76.4444C40.5703 76.4444 40.8208 76.4444 40.8208 76.4444L44.0766 76.6282C44.0766 76.6282 43.8262 77.5475 45.5794 77.7314C45.5794 77.7314 46.0803 79.9377 47.583 79.9377C47.583 79.9377 48.0653 81.2936 49.3269 81.9027C49.3269 81.9027 56.0984 88.2113 61.3579 89.6822C61.3579 89.6822 67.6193 92.8078 69.6229 92.8078L86.6537 76.996Z" fill="#ED9DA0"/>
<path opacity="0.1" d="M54.0803 69.5603C54.0803 69.5603 47.8335 77.3638 47.583 79.9378L54.0803 69.5603Z" fill="#090814"/>
<path opacity="0.1" d="M57.7333 69.5603C57.7333 69.5603 54.5956 77.1799 55.8479 81.2248L57.7333 69.5603Z" fill="#090814"/>
<path d="M56.4716 70.8903L29.7666 73.7302C26.2869 74.1003 23.0459 72.3232 22.5419 69.7687L12.5615 19.1923C12.0574 16.6379 14.4783 14.2587 17.9579 13.8886L44.663 11.0487C48.1427 10.6787 51.3837 12.4558 51.8877 15.0103L61.8681 65.5866C62.3721 68.1411 59.9513 70.5203 56.4716 70.8903Z" fill="#090814"/>
<path d="M56.1751 69.6455L29.4156 72.4912C26.8047 72.7688 24.3728 71.4353 23.9946 69.5187L13.9951 18.8455C13.6169 16.9288 15.4334 15.1436 18.0443 14.8659L44.8038 12.0202C47.4147 11.7426 49.8466 13.076 50.2248 14.9927L60.2242 65.6659C60.6025 67.5825 58.786 69.3678 56.1751 69.6455Z" fill="white"/>
<path d="M36.3315 16.2864L27.816 17.1919C26.8342 17.2963 25.9198 16.7949 25.7775 16.0742C25.6353 15.3534 26.3183 14.6822 27.3001 14.5778L35.8156 13.6722C36.7974 13.5678 37.7119 14.0692 37.8541 14.7899C37.9963 15.5107 37.3133 16.182 36.3315 16.2864Z" fill="#090814"/>
<path d="M31.5717 61.9056C31.9798 63.6531 34.2094 64.8442 36.6 64.5918L49.5647 63.223C52.0413 62.9615 53.7398 61.2551 53.3267 59.4435L53.3148 59.3915C52.9134 57.631 50.6642 56.4315 48.2594 56.6953L35.3066 58.1161C32.8346 58.3873 31.1494 60.0972 31.5717 61.9056Z" fill="#6C63FF"/>
<path d="M88.0002 76.2373C88.0002 76.2373 85.7773 72.4914 76.0096 82.6036C66.242 92.7158 62.4852 96.7606 64.9897 98.2315C67.4942 99.7024 74.8051 105 74.8051 105H88.0002V76.2373Z" fill="#090814"/>
<path d="M68.8718 84.718C68.8718 84.718 60.3564 82.1439 59.6051 66.3321C59.6051 66.3321 57.6014 64.4936 56.5996 64.4936C55.5978 64.4936 55.3474 63.7581 55.3474 63.7581C55.3474 63.7581 52.8428 64.8613 51.3401 64.3097C51.3401 64.3097 43.3256 64.6774 41.5724 61.5518C39.8193 58.4262 46.0806 57.6908 46.0806 57.6908L47.8338 57.5069L54.0951 54.5652C54.0951 54.5652 56.8501 53.8298 58.8537 55.4845L66.6178 58.6101L73.1295 60.8164L76.3854 63.2065" fill="#ED9DA0"/>
<path opacity="0.1" d="M47.5828 60.6327C47.5828 60.6327 44.0765 62.6551 42.5738 61.0004C41.071 59.3457 43.917 58.1726 43.917 58.1726L47.8333 57.5071L47.0819 60.265L47.5828 60.6327Z" fill="#090814"/>
<path opacity="0.1" d="M33.5573 76.2606C33.5573 76.2606 32.4486 76.7342 31.6255 79.0714L31.0527 77.1799C31.0527 77.1799 31.0527 75.3814 32.305 75.4533C32.305 75.4533 33.5573 75.709 33.5573 76.2606Z" fill="#090814"/>
<path opacity="0.1" d="M73.6299 56.5876C73.6299 56.5876 69.6102 57.6159 67.8633 59.0323L73.6299 56.5876Z" fill="#090814"/>
<path d="M27.7969 38.018L33.5573 53.8298C33.5573 53.8298 40.57 56.7715 46.5809 52.5428V36.1404L27.7969 38.018Z" fill="#D6D6E3"/>
<path d="M26.5448 36.915V37.5537C26.5448 37.5537 25.7935 38.3858 27.0457 38.7535C28.298 39.1213 44.327 38.7535 47.3325 36.3634C47.3325 36.3634 48.0838 36.1795 47.082 35.628L46.8316 34.8925C46.8316 34.8925 45.8297 34.3409 45.3288 34.3409L44.5775 32.8701C44.5775 32.8701 32.3053 31.9508 27.7971 34.7615L27.5466 35.9957L26.5448 36.915Z" fill="#6C63FF"/>
<path d="M27.5469 35.9955V36.731C27.5469 36.731 37.8155 38.5696 45.83 35.0763L45.3291 34.3408" fill="#6C63FF"/>
<path d="M28.5488 41.5114L31.5543 49.7851C31.5543 49.7851 40.5706 53.2784 47.0824 48.1303L46.8319 39.6729C46.8319 39.6729 37.3147 43.5339 28.5488 41.5114Z" fill="#090814"/>
</g>
</g>
<defs>
<clipPath id="clip0_297_4354">
<rect width="100" height="100" rx="50" fill="white"/>
</clipPath>
<clipPath id="clip1_297_4354">
<rect width="76" height="94" fill="white" transform="translate(12 11)"/>
</clipPath>
</defs>
</svg>
