<svg width="100" height="100" viewBox="0 0 100 100" fill="none" xmlns="http://www.w3.org/2000/svg">
<rect width="100" height="100" rx="50" fill="#C4C4C4"/>
<g clip-path="url(#clip0_297_4397)">
<path d="M56.0959 23.5286C55.5042 23.0432 54.7766 22.6198 54.1521 22.1479C52.7127 21.0607 52.2148 19.6133 50.2831 18.78C48.3719 17.9554 45.3383 17.1436 42.9469 17.2088C39.7946 17.2945 37.2939 18.7131 35.121 20.0404L30.1383 23.0836C28.9371 23.8174 27.6913 24.5965 27.2583 25.5769C26.8421 26.5192 27.2483 27.5312 28.0103 28.3978C28.8019 29.2767 29.9124 30.0457 31.2653 30.6519C32.9328 29.3199 35.2691 27.4806 35.2691 27.4806L35.813 32.0555C38.6386 32.5987 41.6734 32.7054 44.6506 32.5854L45.5321 30.7096L46.4576 32.4816C50.0155 32.208 53.5914 31.4953 55.7925 29.885C58.2289 28.1039 58.3581 25.3845 56.0959 23.5286Z" fill="#2F2E41"/>
<path d="M38.2695 25.6538C38.2695 25.6538 38.6911 28.5883 35.9509 28.8328C33.2107 29.0772 30.2598 28.8328 30.2598 29.8108C30.2598 30.7888 32.3674 39.7144 32.3674 39.7144L37.6369 39.4698L45.0141 35.3128L49.0188 30.7889C49.0188 30.7889 44.1702 29.5664 46.2786 25.8981L38.2695 25.6538Z" fill="#ED9DA0"/>
<path d="M42.4854 27.6102C46.0941 27.6102 49.0196 25.9132 49.0196 23.8199C49.0196 21.7265 46.0941 20.0295 42.4854 20.0295C38.8766 20.0295 35.9512 21.7265 35.9512 23.8199C35.9512 25.9132 38.8766 27.6102 42.4854 27.6102Z" fill="#ED9DA0"/>
<path d="M35.4238 21.0687C35.4238 21.0687 40.6934 24.7362 51.2323 22.6582L48.2819 19.6007L41.3263 18.3782L35.4238 21.0687Z" fill="#2F2E41"/>
<path d="M86.9991 29.0229L81.1104 30.4487L74.2695 16.6107L75.874 15.5062L78.815 15.2417L86.9991 29.0229Z" fill="#E6E6E6"/>
<path opacity="0.2" d="M86.9981 29.0229L81.1094 30.4487L74.2686 16.6107L75.873 15.5062L78.814 15.2417L86.9981 29.0229Z" fill="black"/>
<path d="M75.875 15.5056L65.6543 16.2665L70.8932 30.9098L81.1114 30.4487L75.875 15.5056Z" fill="#E6E6E6"/>
<path d="M73.2176 15.8356L73.055 15.8238C73.055 15.7884 73.7322 12.3319 69.9922 11.8959L70.0237 11.803C73.9241 12.2573 73.2312 15.8003 73.2176 15.8356Z" fill="#090814"/>
<path d="M76.2808 31.4608L69.918 31.7453L70.8975 17.3596L73.017 16.6028L75.9536 16.8869L76.2808 31.4608Z" fill="#6C63FF"/>
<path opacity="0.2" d="M76.2808 31.4608L69.918 31.7453L70.8975 17.3596L73.017 16.6028L75.9536 16.8869L76.2808 31.4608Z" fill="black"/>
<path d="M73.0166 16.6028L62.9023 15.4663L59.9658 30.3256L69.9176 31.7449L73.0166 16.6028Z" fill="#6C63FF"/>
<path d="M16.406 9.08057H14.9366L12 23.9385L18.5254 23.7501L16.406 9.08057Z" fill="#E6E6E6"/>
<path opacity="0.2" d="M16.406 9.08057H14.9366L12 23.9385L18.5254 23.7501L16.406 9.08057Z" fill="black"/>
<path d="M15.9166 8.89087L14.1221 23.8445L29.7844 24.7911L31.5787 10.2159L15.9166 8.89087Z" fill="#E6E6E6"/>
<path d="M33.94 84.6643C33.94 84.6643 31.983 84.57 31.6558 87.8827C31.6558 87.8827 31.983 89.6803 31.166 90.5326C30.349 91.385 30.8387 93.8452 33.2877 94.1293C34.8545 94.2968 36.4608 94.2968 38.0276 94.1293C38.0276 94.1293 39.1697 94.1293 38.3548 91.7634L36.7229 84.8542L33.94 84.6643Z" fill="#090814"/>
<path d="M31.5784 28.1977V29.4284L27.9896 34.8228L27.01 34.2546C26.956 34.2209 26.9062 34.185 26.861 34.1472C24.4911 32.1938 22.7666 19.2067 22.7666 19.2067L20.4848 8.22526C20.4848 8.22526 18.0378 4.82142 23.4191 5.00735C28.8004 5.19328 24.5612 8.13004 24.5612 8.13004L27.9898 20.3223C27.9898 20.3223 29.1296 22.6109 28.9649 24.2189C28.8003 25.8268 31.5784 28.1977 31.5784 28.1977Z" fill="#ED9DA0"/>
<path d="M69.101 14.2369L60.617 24.6472L59.3123 26.0639C59.3123 26.0639 55.2494 34.3806 50.557 36.372C50.2873 36.4889 49.9948 36.5869 49.6856 36.664L48.7061 32.1208L49.6089 30.8014L49.6766 30.7006C50.7235 30.1083 51.5555 29.4005 52.1235 28.6188C53.103 27.2938 55.8771 24.6438 55.8771 24.6438L65.6663 13.3811C65.6663 13.3811 66.4812 9.12197 70.4062 11.2037C74.3312 13.2855 69.101 14.2369 69.101 14.2369Z" fill="#ED9DA0"/>
<path d="M38.3428 87.5029C38.3428 87.5029 32.7947 88.8279 33.4471 87.5972C33.8443 86.8506 33.6976 85.4408 33.5215 84.4549C33.4086 83.812 33.2822 83.3433 33.2822 83.3433L38.0221 83.6274C37.8564 83.8672 37.764 84.122 37.749 84.3802C37.5935 85.6358 38.3428 87.5029 38.3428 87.5029Z" fill="#ED9DA0"/>
<path d="M46.9702 83.8212C46.1147 85.5441 46.3381 88.5451 46.3381 88.5451C46.3381 88.5451 41.2799 88.9235 41.7697 88.1667C42.1105 87.643 42.6093 85.0479 42.8805 83.5226C43.0002 82.8562 43.0744 82.394 43.0744 82.394L47.6428 82.9623C47.3317 83.2229 47.1039 83.5138 46.9702 83.8212Z" fill="#ED9DA0"/>
<path d="M52.8651 60.908C51.5136 66.3016 50.9203 67.7652 50.1295 69.1945C49.4389 70.4842 49.9287 72.0751 49.9287 72.0751C49.9287 72.0751 50.5811 78.1319 49.4389 79.6467C48.2968 81.1616 48.4593 83.3376 48.4593 83.3376C45.8478 84.19 42.0965 83.1478 42.0965 83.1478L41.7693 73.1159L40.7893 60.5337C38.9836 60.8178 39.1574 74.6349 39.1574 74.6349V83.6258C35.2412 85.6134 31.815 83.6258 31.815 83.6258C30.5103 81.3542 31.0001 74.445 31.0001 74.445C31.0001 74.445 28.7046 65.3597 27.576 58.3563C27.2271 56.3886 27.5023 52.0131 27.5407 51.815C27.6971 50.9194 27.9794 50.0327 28.3849 49.1637C28.5143 48.8772 28.6802 48.5967 28.8814 48.3245L46.4126 48.7972L47.4463 48.8247L49.9291 48.8915C50.1999 49.1284 50.455 49.3694 50.692 49.6102C51.0351 49.9598 51.3443 50.312 51.6197 50.6577C51.7784 50.8593 51.9266 51.0623 52.071 51.2639C55.4044 56.1462 52.8651 60.908 52.8651 60.908Z" fill="#E6E6E6"/>
<path d="M35.3929 87C34.56 86.924 33.287 86.6583 33.6866 85.73C33.6866 85.73 32.1449 85.421 32.3075 89.1119C32.3075 89.1119 32.1449 90.9096 31.8177 91.2893C31.4905 91.6691 31.8177 93.9393 35.2441 93.7495C35.2441 93.7495 37.6909 94.2222 38.3431 93.4654C38.3431 93.4654 37.8533 89.1119 38.6703 88.3591C39.4873 87.6063 38.3431 86.8443 38.3431 86.8443C38.3431 86.8443 37.1874 87.2161 36.3568 87.1061C36.0392 87.0603 35.7174 87.0249 35.3929 87Z" fill="#090814"/>
<path d="M39.4849 93.1812C39.4849 93.1812 37.8529 94.7904 41.6066 94.9788C45.3602 95.1673 46.9898 94.0322 46.9898 94.0322C46.9898 94.0322 47.4796 93.5595 46.9898 92.7072C46.5 91.8548 47.1524 90.3413 47.1524 90.3413C47.1524 90.3413 47.6422 88.5436 46.5 88.9219C45.3579 89.3002 39.4849 93.1812 39.4849 93.1812Z" fill="#090814"/>
<path d="M43.7282 87.4087C43.7282 87.4087 41.7711 86.936 41.2814 87.8814C40.7916 88.8268 41.1188 91.1939 40.1392 91.8564C39.1596 92.519 37.8549 94.3166 41.7711 94.2223C45.6873 94.128 46.5111 93.37 46.5111 93.37C46.5111 93.37 46.3485 91.0041 46.8383 90.3416C47.3281 89.6791 46.8383 88.6395 46.8383 88.6395C46.8383 88.6395 46.9897 87.3079 43.7282 87.4087Z" fill="#090814"/>
<path d="M27.0909 10.6898H26.9283C26.9283 10.6489 27.0435 6.65716 23.0911 6.28918C22.3124 6.21759 21.6759 6.31925 21.1997 6.59293C19.5678 7.5317 20.2427 10.1827 20.2494 10.2092L20.0891 10.2236C20.0598 10.1123 19.3962 7.49764 21.0868 6.52615C21.6015 6.22895 22.2877 6.11767 23.1183 6.19489C27.2081 6.57463 27.093 10.6493 27.0909 10.6898Z" fill="#090814"/>
<path d="M70.3176 16.4339L70.1709 16.393C70.1957 16.3616 72.7097 13.2021 69.3877 12.1011L69.469 12.0186C72.9201 13.1631 70.3451 16.401 70.3176 16.4339Z" fill="#090814"/>
<path opacity="0.1" d="M30.6763 26.365V27.5957L27.0875 32.9901L26.108 32.4219C26.0539 32.3882 26.0041 32.3523 25.959 32.3145C26.3827 29.5021 30.6763 26.365 30.6763 26.365Z" fill="black"/>
<path d="M20.8936 5.81543C20.8936 5.81543 23.3402 8.1813 24.9721 5.81543H20.8936Z" fill="#ED9DA0"/>
<path d="M68.2858 11.1128C68.2858 11.1128 67.3062 13.9527 71.2201 12.6277L68.2858 11.1128Z" fill="#ED9DA0"/>
<path d="M44.1848 30.1984C46.4416 30.8151 51.7236 28.4466 51.7236 28.4466C54.0079 28.825 52.376 34.3149 52.376 34.3149L52.2878 34.5427C51.7911 35.8376 51.4911 37.1534 51.2134 38.4706C51.0034 39.4644 49.4394 40.3729 49.4394 40.3729C46.6653 43.4013 51.0713 49.3639 51.0713 49.3639C51.0713 49.3639 36.8762 51.5413 32.9623 49.8366C29.0484 48.1319 26.1074 49.3639 26.1074 49.3639C28.8815 47.9446 26.1074 43.4704 26.1074 39.2364V32.4281C26.4347 29.5882 30.2622 26.645 30.2622 26.645C32.0679 29.5791 40.1535 30.2521 44.1848 30.1984Z" fill="#6C63FF"/>
</g>
<defs>
<clipPath id="clip0_297_4397">
<rect width="75" height="90" fill="white" transform="translate(12 5)"/>
</clipPath>
</defs>
</svg>
