<svg width="1440" height="633" viewBox="0 0 1440 633" fill="none" xmlns="http://www.w3.org/2000/svg">
<g clip-path="url(#clip0_297_4461)">
<rect width="1440" height="633" fill="#0C850C" fill-opacity="0.35"/>
<path d="M103 693.8C82.4 693.8 64.8 689.1 50.2 679.7C35.6 670.3 24.3 657.3 16.3 640.7C8.5 623.9 4.6 604.6 4.6 582.8C4.6 561.4 8.6 542.3 16.6 525.5C24.6 508.7 36.1 495.5 51.1 485.9C66.3 476.1 84.5 471.2 105.7 471.2C124.1 471.2 139.6 474.3 152.2 480.5C165 486.5 175.2 495.1 182.8 506.3C190.4 517.5 195.7 530.7 198.7 545.9L151.6 548C149.4 536.2 144.7 526.9 137.5 520.1C130.5 513.1 120 509.6 106 509.6C93.8 509.6 83.6 512.8 75.4 519.2C67.4 525.6 61.4 534.3 57.4 545.3C53.6 556.3 51.7 568.8 51.7 582.8C51.7 597 53.6 609.6 57.4 620.6C61.4 631.4 67.4 639.9 75.4 646.1C83.6 652.3 94.1 655.4 106.9 655.4C116.3 655.4 124.4 653.5 131.2 649.7C138.2 645.9 143.6 640.7 147.4 634.1C151.4 627.5 153.8 620 154.6 611.6H106V578.3H199.3V689H171.1L168.7 643.4L174.1 645.8C172.1 655.2 167.7 663.5 160.9 670.7C154.1 677.9 145.7 683.6 135.7 687.8C125.9 691.8 115 693.8 103 693.8ZM301.614 692.6C285.214 692.6 270.914 689.2 258.714 682.4C246.514 675.4 237.014 665.6 230.214 653C223.414 640.4 220.014 625.6 220.014 608.6C220.014 591.6 223.414 576.9 230.214 564.5C237.014 551.9 246.514 542.1 258.714 535.1C270.914 528.1 285.214 524.6 301.614 524.6C318.014 524.6 332.314 528.1 344.514 535.1C356.714 542.1 366.214 551.9 373.014 564.5C379.814 576.9 383.214 591.6 383.214 608.6C383.214 625.6 379.814 640.4 373.014 653C366.214 665.6 356.714 675.4 344.514 682.4C332.314 689.2 318.014 692.6 301.614 692.6ZM301.614 658.1C312.814 658.1 321.514 653.8 327.714 645.2C333.914 636.4 337.014 624.2 337.014 608.6C337.014 593 333.914 580.9 327.714 572.3C321.514 563.5 312.814 559.1 301.614 559.1C290.414 559.1 281.714 563.5 275.514 572.3C269.314 580.9 266.214 593 266.214 608.6C266.214 624.2 269.314 636.4 275.514 645.2C281.714 653.8 290.414 658.1 301.614 658.1ZM403.734 689V528.2H446.334L447.834 575L444.534 574.1C447.134 557.9 451.734 546.2 458.334 539C464.934 531.8 474.034 528.2 485.634 528.2H500.334V565.4H485.634C477.234 565.4 470.334 566.5 464.934 568.7C459.534 570.9 455.434 574.4 452.634 579.2C450.034 584 448.734 590.5 448.734 598.7V689H403.734ZM583.963 692.6C567.563 692.6 553.263 689.2 541.063 682.4C529.063 675.4 519.663 665.6 512.863 653C506.263 640.4 502.963 625.6 502.963 608.6C502.963 591.6 506.263 576.9 512.863 564.5C519.663 551.9 529.063 542.1 541.063 535.1C553.063 528.1 567.263 524.6 583.663 524.6C599.663 524.6 613.563 528.1 625.363 535.1C637.163 542.1 646.263 552.1 652.663 565.1C659.263 578.1 662.563 593.6 662.563 611.6V620.6H549.463C550.063 633.4 553.463 642.9 559.663 649.1C566.063 655.3 574.463 658.4 584.863 658.4C592.463 658.4 598.763 656.8 603.763 653.6C608.963 650.4 612.663 645.5 614.863 638.9L660.163 641.6C655.963 657.6 647.063 670.1 633.463 679.1C619.863 688.1 603.363 692.6 583.963 692.6ZM549.463 593H616.363C615.763 581.2 612.463 572.4 606.463 566.6C600.663 560.8 593.063 557.9 583.663 557.9C574.263 557.9 566.463 561 560.263 567.2C554.263 573.2 550.663 581.8 549.463 593ZM685.274 689V476H832.274V514.4H705.674L730.874 488.3V585.8L705.674 566H826.874V603.8H705.674L730.874 584V689H685.274ZM849.105 689V528.2H891.705L893.205 575L889.905 574.1C892.505 557.9 897.105 546.2 903.705 539C910.305 531.8 919.405 528.2 931.005 528.2H945.705V565.4H931.005C922.605 565.4 915.705 566.5 910.305 568.7C904.905 570.9 900.805 574.4 898.005 579.2C895.405 584 894.105 590.5 894.105 598.7V689H849.105ZM1029.33 692.6C1012.93 692.6 998.634 689.2 986.434 682.4C974.434 675.4 965.034 665.6 958.234 653C951.634 640.4 948.334 625.6 948.334 608.6C948.334 591.6 951.634 576.9 958.234 564.5C965.034 551.9 974.434 542.1 986.434 535.1C998.434 528.1 1012.63 524.6 1029.03 524.6C1045.03 524.6 1058.93 528.1 1070.73 535.1C1082.53 542.1 1091.63 552.1 1098.03 565.1C1104.63 578.1 1107.93 593.6 1107.93 611.6V620.6H994.834C995.434 633.4 998.834 642.9 1005.03 649.1C1011.43 655.3 1019.83 658.4 1030.23 658.4C1037.83 658.4 1044.13 656.8 1049.13 653.6C1054.33 650.4 1058.03 645.5 1060.23 638.9L1105.53 641.6C1101.33 657.6 1092.43 670.1 1078.83 679.1C1065.23 688.1 1048.73 692.6 1029.33 692.6ZM994.834 593H1061.73C1061.13 581.2 1057.83 572.4 1051.83 566.6C1046.03 560.8 1038.43 557.9 1029.03 557.9C1019.63 557.9 1011.83 561 1005.63 567.2C999.634 573.2 996.034 581.8 994.834 593ZM1196.95 692.6C1180.35 692.6 1166.45 690.3 1155.25 685.7C1144.05 680.9 1135.45 674.5 1129.45 666.5C1123.65 658.3 1120.35 648.9 1119.55 638.3L1165.15 636.8C1166.55 644.4 1169.75 650.3 1174.75 654.5C1179.75 658.7 1187.15 660.8 1196.95 660.8C1204.95 660.8 1211.15 659.5 1215.55 656.9C1220.15 654.3 1222.45 650.3 1222.45 644.9C1222.45 641.5 1221.65 638.7 1220.05 636.5C1218.45 634.1 1215.25 632.1 1210.45 630.5C1205.85 628.7 1198.95 627.1 1189.75 625.7C1172.75 622.7 1159.45 619.2 1149.85 615.2C1140.25 611.2 1133.45 606 1129.45 599.6C1125.45 593.2 1123.45 585.4 1123.45 576.2C1123.45 560.8 1129.35 548.4 1141.15 539C1153.15 529.4 1171.05 524.6 1194.85 524.6C1210.05 524.6 1222.75 527 1232.95 531.8C1243.35 536.6 1251.35 543.2 1256.95 551.6C1262.75 559.8 1266.35 569.2 1267.75 579.8L1222.45 581.6C1221.85 576.4 1220.25 572 1217.65 568.4C1215.25 564.6 1212.15 561.7 1208.35 559.7C1204.55 557.5 1199.95 556.4 1194.55 556.4C1186.55 556.4 1180.35 558.1 1175.95 561.5C1171.75 564.7 1169.65 569 1169.65 574.4C1169.65 578.4 1170.55 581.7 1172.35 584.3C1174.35 586.7 1177.55 588.7 1181.95 590.3C1186.35 591.9 1192.25 593.2 1199.65 594.2C1216.85 596.6 1230.45 600 1240.45 604.4C1250.65 608.6 1257.95 613.9 1262.35 620.3C1266.75 626.7 1268.95 634.6 1268.95 644C1268.95 654.4 1265.95 663.2 1259.95 670.4C1253.95 677.6 1245.55 683.1 1234.75 686.9C1224.15 690.7 1211.55 692.6 1196.95 692.6ZM1289.2 689V476H1334.2V565.7H1328.2C1329.8 556.3 1332.9 548.6 1337.5 542.6C1342.3 536.6 1348.2 532.1 1355.2 529.1C1362.4 526.1 1370.2 524.6 1378.6 524.6C1390.6 524.6 1400.6 527.2 1408.6 532.4C1416.6 537.6 1422.6 544.8 1426.6 554C1430.8 563.2 1432.9 573.7 1432.9 585.5V689H1387.9V596.3C1387.9 584.3 1386 575.3 1382.2 569.3C1378.6 563.3 1372.4 560.3 1363.6 560.3C1354.4 560.3 1347.2 563.4 1342 569.6C1336.8 575.8 1334.2 585.1 1334.2 597.5V689H1289.2Z" fill="#0C850C" fill-opacity="0.19"/>
</g>
<defs>
<clipPath id="clip0_297_4461">
<rect width="1440" height="633" fill="white"/>
</clipPath>
</defs>
</svg>
