<svg width="100" height="100" viewBox="0 0 100 100" fill="none" xmlns="http://www.w3.org/2000/svg">
<g clip-path="url(#clip0_297_4376)">
<rect width="100" height="100" rx="50" fill="#FFEAAD"/>
<g clip-path="url(#clip1_297_4376)">
<path d="M39.5978 26.4925C39.5981 24.9698 39.9999 23.477 40.7586 22.1799C41.5173 20.8827 42.6031 19.8319 43.8956 19.1442C45.1881 18.4565 46.6367 18.1587 48.0805 18.284C49.5242 18.4093 50.9067 18.9528 52.0744 19.854C53.2421 20.7552 54.1493 21.979 54.6953 23.3894C55.2413 24.7998 55.4047 26.3416 55.1674 27.8437C54.9301 29.3459 54.3013 30.7495 53.351 31.8987C52.4006 33.0479 51.1658 33.8978 49.7837 34.354L48.6147 35.3437L50.7126 43.0613L48.2684 44.879L40.5443 38.1134C40.5443 38.1134 42.2129 35.8794 43.1078 33.36C42.0282 32.6095 41.1424 31.5893 40.5299 30.3907C39.9173 29.1922 39.597 27.8527 39.5977 26.4922L39.5978 26.4925Z" fill="#9F616A"/>
<path d="M74.6117 47.5998L68.9962 68.1105L63.3174 63.9679L70.0094 46.0726C69.4258 44.9365 69.2808 43.4434 69.724 41.9674C70.4997 39.3848 72.7769 37.8382 74.8103 38.5128C76.8436 39.1875 77.8633 41.828 77.0877 44.4106C76.6445 45.8866 75.71 47.0216 74.6117 47.6002V47.5998Z" fill="#9F616A"/>
<path d="M55.8713 55.6985H35.6152V80.4961H55.8713V55.6985Z" fill="#9F616A"/>
<path d="M34.3712 71.1868L29.7766 85.8614L29.5029 92.878H63.4743L56.9225 71.1868H34.3712Z" fill="#090814"/>
<path d="M70.0025 92.9999H22.8388C22.7677 92.9888 22.7027 92.9512 22.6558 92.894C22.6088 92.8368 22.583 92.7637 22.583 92.6882C22.583 92.6126 22.6088 92.5396 22.6558 92.4823C22.7027 92.4251 22.7677 92.3876 22.8388 92.3765H70.0025C70.0745 92.3864 70.1406 92.4235 70.1885 92.4808C70.2363 92.5382 70.2627 92.6119 70.2627 92.6882C70.2627 92.7645 70.2363 92.8382 70.1885 92.8955C70.1406 92.9528 70.0745 92.9899 70.0025 92.9999Z" fill="#CCCCCC"/>
<path d="M42.4139 35.9246L37.5986 47.4827L38.0751 67.3473H54.35L54.8609 46.2696L48.8188 36.4807L42.4139 35.9246Z" fill="#6C63FF"/>
<path d="M32.7402 40.5241C32.7402 40.5241 31.3305 83.0275 27.5449 90.0416C27.5449 90.0416 32.7757 90.9997 34.1064 89.0181C35.4371 87.0364 40.5683 73.8433 40.6241 70.9215C40.68 67.9998 42.2874 35.9106 42.2874 35.9106L32.74 40.5241H32.7402Z" fill="#E6E6E6"/>
<path d="M48.3937 37.6489L48.8187 36.481L59.6117 40.9861C59.6117 40.9861 59.1081 83.4618 63.4773 87.7542C63.4773 87.7542 56.1779 87.3882 55.9355 87.2124C55.6931 87.0367 50.3938 65.0726 50.3938 65.0726C50.3938 65.0726 52.92 54.8975 53.1149 50.5528C53.3099 46.2082 48.3936 37.6493 48.3936 37.6493L48.3937 37.6489Z" fill="#E6E6E6"/>
<path d="M56.8733 41.8162L59.6118 40.9858L65.9087 54.3895L68.6073 47.0479L75.2744 49.0506C75.2744 49.0506 72.2439 69.7223 67.6622 68.61C63.0805 67.4978 56.873 56.1461 56.873 56.1461V41.8162H56.8733Z" fill="#E6E6E6"/>
<path d="M29.8783 82.7495L20.6885 68.707L24.9133 64.8L33.5493 80.0834C34.6693 80.2798 35.7888 81.0153 36.5628 82.1924C37.9169 84.2526 37.7 86.8767 36.0787 88.0547C34.4574 89.2326 32.0436 88.5178 30.6895 86.4581C29.9156 85.281 29.657 83.9202 29.8783 82.7495Z" fill="#9F616A"/>
<path d="M34.3717 41.709L32.7405 40.5239L19.3968 67.0158C19.3968 67.0158 18.3137 68.6133 19.7265 71.1872C21.1392 73.761 28.3922 81.6431 28.3922 81.6431L34.1071 78.2504L28.286 66.8486L33.7725 56.8735L34.3712 41.7092L34.3717 41.709Z" fill="#E6E6E6"/>
<path d="M50.9733 15.4185C52.726 16.0659 53.7289 16.4362 54.6476 17.367C56.1992 18.9384 56.4555 21.0382 56.6933 22.9891C56.8795 24.5157 57.1202 26.489 56.2682 28.7438C55.978 29.5132 54.57 32.9413 51.8758 33.3745C51.3467 33.4596 50.1046 33.4818 50.4624 33.204C53.7764 30.6324 55.1907 29.08 55.0749 25.1166C55.0028 22.6538 51.4227 19.995 49.2971 19.5172C48.7864 19.4076 48.2593 19.4151 47.7516 19.5393C47.244 19.6636 46.7678 19.9016 46.3557 20.237C44.5691 21.7787 44.6452 28.1539 42.7612 29.4864C41.9864 30.0346 42.5025 26.1765 41.9567 26.8021C40.8796 28.0365 41.5704 29.9256 41.7641 30.6468C42.6823 34.062 43.6441 31.5364 44.54 34.4527C45.0222 36.0206 40.7685 37.6496 38.5238 38.0941C36.3107 38.5323 35.3568 39.8008 36.5196 38.7849C33.3913 37.4049 39.8965 32.9981 40.1888 31.749C40.6066 29.9641 38.8715 29.2031 38.5239 26.3876C38.2862 24.4622 38.1192 21.7087 38.7664 19.9433C39.3771 18.2764 39.9075 16.8296 41.2951 15.5177C41.6292 15.2031 44.3195 13.0612 47.1724 13.0005C48.4857 12.9729 49.4512 14.8548 50.9734 15.4174L50.9733 15.4185Z" fill="#090814"/>
<path d="M73.2713 39.9687C73.2564 39.9687 73.2415 39.9687 73.2264 39.9676C73.0412 39.9527 72.863 39.8873 72.7092 39.778C72.5553 39.6686 72.4313 39.519 72.3492 39.3439C71.6585 38.042 70.7838 36.8577 69.755 35.8317C69.1462 35.2235 68.51 34.6577 67.8947 34.1107C66.3075 32.6999 64.8129 31.3712 63.983 29.5353C62.1739 25.5319 64.3044 19.956 67.3481 17.4554C70.7619 14.6505 75.2521 14.2108 79.596 14.1532C80.0474 14.1473 80.4991 14.1443 80.9511 14.1443C88.7977 14.1503 96.6209 15.0445 104.285 16.8114C106.845 17.4016 109.524 18.1248 111.677 19.8798C113.817 21.6244 115.118 24.3717 114.991 26.8795C114.806 30.5398 111.702 33.2749 108.875 33.9899C106.181 34.6709 103.382 34.2107 100.419 33.7233C99.7647 33.6158 99.0884 33.5045 98.4196 33.4078C91.1509 32.3576 77.4966 35.5947 76.918 35.733L76.3449 35.8701L74.1218 39.4474C74.0337 39.603 73.9095 39.7324 73.7608 39.8238C73.6121 39.9151 73.4438 39.9653 73.2716 39.9697L73.2713 39.9687Z" fill="#6C63FF"/>
<path d="M92.224 28.7791C91.8417 28.786 91.4642 28.6884 91.1285 28.4957C90.8079 28.3079 90.5442 28.0287 90.3679 27.6903C90.1749 27.3098 90.0791 26.8833 90.0897 26.4523V26.2733C90.0787 25.8403 90.1745 25.4117 90.368 25.0293C90.5448 24.6906 90.8083 24.4108 91.1286 24.2213C91.4637 24.0269 91.8414 23.9281 92.2242 23.935C92.6087 23.9277 92.9883 24.0264 93.3252 24.2213C93.646 24.4113 93.9103 24.6912 94.0887 25.0298C94.2839 25.4116 94.3808 25.8404 94.3697 26.2737V26.4527C94.3804 26.884 94.2835 27.3108 94.0887 27.6907C93.9107 28.0288 93.6463 28.3078 93.3252 28.4961C92.9877 28.6891 92.6082 28.7866 92.224 28.7791ZM86.0825 24.4477C85.7001 24.4546 85.3226 24.357 84.9869 24.1644C84.6663 23.9765 84.4026 23.6973 84.2263 23.3589C84.0334 22.9785 83.9375 22.5519 83.9481 22.1209V21.942C83.9371 21.509 84.033 21.0804 84.2264 20.6979C84.4033 20.3593 84.6667 20.0794 84.9871 19.89C85.3221 19.6955 85.6999 19.5968 86.0826 19.6037C86.4671 19.5963 86.8468 19.695 87.1837 19.89C87.5045 20.08 87.7688 20.3598 87.9472 20.6984C88.1424 21.0802 88.2393 21.509 88.2282 21.9423V22.1213C88.2389 22.5527 88.142 22.9795 87.9472 23.3593C87.7693 23.6974 87.5048 23.9765 87.1837 24.1647C86.8462 24.3577 86.4667 24.4551 86.0826 24.4476L86.0825 24.4477ZM85.5263 28.6359L91.3386 19.7464H92.7917L86.9794 28.6359H85.5263ZM86.0826 23.0874C86.1723 23.0901 86.2613 23.0707 86.3426 23.0308C86.4239 22.9909 86.4952 22.9316 86.5509 22.8576C86.67 22.7045 86.7296 22.4589 86.7296 22.1208V21.9419C86.7296 21.5998 86.67 21.3492 86.5509 21.1901C86.4966 21.114 86.4257 21.0526 86.3443 21.0111C86.2628 20.9696 86.1731 20.9491 86.0826 20.9515C85.9933 20.9494 85.9049 20.9701 85.8249 21.0116C85.7448 21.0532 85.6755 21.1144 85.6228 21.1901C85.5055 21.3492 85.4469 21.5998 85.4469 21.9419V22.1208C85.4469 22.4589 85.5055 22.7045 85.6228 22.8576C85.6768 22.9313 85.7466 22.9904 85.8265 23.0303C85.9064 23.0703 85.9941 23.0898 86.0826 23.0874ZM92.2242 27.4187C92.3138 27.4214 92.4029 27.4021 92.4842 27.3622C92.5655 27.3223 92.6368 27.263 92.6924 27.189C92.8116 27.0359 92.8712 26.7903 92.8712 26.4522V26.2732C92.8712 25.9312 92.8116 25.6806 92.6924 25.5215C92.6381 25.4454 92.5673 25.384 92.4858 25.3424C92.4044 25.3009 92.3147 25.2805 92.2242 25.2828C92.1349 25.2808 92.0465 25.3015 91.9665 25.343C91.8864 25.3845 91.8171 25.4458 91.7644 25.5215C91.6471 25.6806 91.5884 25.9312 91.5884 26.2732V26.4522C91.5884 26.7903 91.6471 27.0359 91.7644 27.189C91.8184 27.2626 91.8882 27.3218 91.968 27.3617C92.0479 27.4016 92.1356 27.4211 92.224 27.4187H92.2242Z" fill="white"/>
</g>
</g>
<defs>
<clipPath id="clip0_297_4376">
<rect width="100" height="100" rx="50" fill="white"/>
</clipPath>
<clipPath id="clip1_297_4376">
<rect width="96" height="80" fill="white" transform="translate(19 13)"/>
</clipPath>
</defs>
</svg>
